<svg width="24" height="24" viewBox="0 0 24 24" fill="none" xmlns="http://www.w3.org/2000/svg">
<path fill-rule="evenodd" clip-rule="evenodd" d="M12 2C17.5197 2.00011 21.9999 6.47997 22 12C22 17.5202 17.5198 22.0009 12 22.001C6.47011 22.001 2 17.5202 2 12C2.00014 6.47991 6.4702 2 12 2ZM12 7C11.5798 7 11.25 7.34158 11.25 7.77637V14.3496L8.77832 11.7822C8.63828 11.6374 8.43808 11.5547 8.24805 11.5547C8.05903 11.5547 7.86783 11.6374 7.71777 11.7822C7.42761 12.0824 7.42761 12.5797 7.71777 12.8799L11.4697 16.7822C11.7499 17.0721 12.2501 17.0721 12.5303 16.7822L16.2822 12.8799C16.5724 12.5797 16.5724 12.0824 16.2822 11.7822C15.9821 11.4823 15.512 11.4823 15.2119 11.7822L12.75 14.3496V7.77637C12.75 7.34158 12.4102 7 12 7Z" fill="#F29559"/>
</svg>
