<svg width="24" height="24" viewBox="0 0 24 24" fill="none" xmlns="http://www.w3.org/2000/svg">
<path d="M18.1247 9.4858C18.3808 9.4858 18.5887 9.69375 18.5887 9.94985C18.5887 10.206 18.3808 10.4139 18.1247 10.4139H13.6543C13.3982 10.4139 13.1903 10.206 13.1903 9.94985V5.47924C13.1903 5.22313 13.3982 5.01519 13.6543 5.01519C13.9104 5.01519 14.1183 5.22313 14.1183 5.47924V9.4858H18.1247Z" fill="#3D3D3A" stroke="#3D3D3A" stroke-width="0.25" stroke-linecap="round" stroke-linejoin="round"/>
<path d="M5.47919 14.1183C5.22309 14.1183 5.01515 13.9104 5.01515 13.6543C5.01515 13.3982 5.22309 13.1902 5.47919 13.1902H9.94971C10.2058 13.1902 10.4137 13.3982 10.4137 13.6543V18.1248C10.4137 18.3809 10.2058 18.5888 9.94971 18.5888C9.69361 18.5888 9.48567 18.3809 9.48567 18.1248V14.1183H5.47919Z" fill="#3D3D3A" stroke="#3D3D3A" stroke-width="0.25" stroke-linecap="round" stroke-linejoin="round"/>
</svg>
