<svg width="20" height="20" viewBox="0 0 20 20" fill="none" xmlns="http://www.w3.org/2000/svg">
<path fill-rule="evenodd" clip-rule="evenodd" d="M13.4673 2C16.1782 2.00014 17.9999 3.90233 18 6.73241V13.2667C18 16.0976 16.1791 17.9998 13.4682 18H6.53179C3.82071 17.9999 2 16.0978 2 13.2667V6.73241C2.00013 3.90227 3.8208 2.00006 6.53179 2H13.4673ZM9.99953 6.13429C9.66848 6.13429 9.39977 6.40249 9.39954 6.73428V11.8182L7.42614 9.83735C7.30855 9.71979 7.1549 9.6611 7.00053 9.6611C6.84788 9.66121 6.69441 9.71959 6.57772 9.83547C6.34348 10.069 6.3426 10.4487 6.57585 10.6839L9.57485 13.696C9.80046 13.9223 10.1997 13.9224 10.4261 13.696L13.4242 10.6839C13.6575 10.4487 13.6565 10.069 13.4213 9.83547C13.1861 9.60201 12.8073 9.6022 12.5729 9.83735L10.5995 11.8182V6.73428C10.5993 6.40256 10.3305 6.13441 9.99953 6.13429Z" fill="#F29559"/>
</svg>
