<svg width="24" height="24" viewBox="0 0 24 24" fill="none" xmlns="http://www.w3.org/2000/svg">
<path d="M12.3578 7.22297C12.0969 7.21093 11.8782 6.99224 11.8662 6.7313C11.8538 6.46143 12.0666 6.24858 12.3364 6.26104L17.0306 6.47787C17.2915 6.48991 17.5102 6.7086 17.5222 6.96954L17.7391 11.6639C17.7515 11.9338 17.5387 12.1465 17.2688 12.1342C17.0079 12.1221 16.7892 11.9034 16.7772 11.6425L16.5824 7.4177L12.3578 7.22297Z" fill="#3D3D3A" stroke="#3D3D3A" stroke-width="0.25" stroke-linecap="round" stroke-linejoin="round"/>
<path d="M11.6423 16.7779C11.9032 16.7899 12.1219 17.0086 12.1339 17.2696C12.1463 17.5394 11.9335 17.7523 11.6637 17.7398L6.96941 17.523C6.70848 17.5109 6.4898 17.2923 6.47775 17.0313L6.26093 12.3371C6.24847 12.0672 6.46132 11.8545 6.73118 11.8668C6.99211 11.8789 7.2108 12.0976 7.22284 12.3585L7.41757 16.5832L11.6423 16.7779Z" fill="#3D3D3A" stroke="#3D3D3A" stroke-width="0.25" stroke-linecap="round" stroke-linejoin="round"/>
</svg>
