<svg width="24" height="24" viewBox="0 0 24 24" fill="none" xmlns="http://www.w3.org/2000/svg">
<path d="M15.906 3H8.103C5.052 3 3 5.142 3 8.328V15.681C3 18.858 5.052 21 8.103 21H15.906C18.957 21 21 18.858 21 15.681V8.328C21 5.142 18.957 3 15.906 3Z" fill="#1789FC"/>
<path d="M6.32553 17.3932H8.77956V9.5981H6.32553V17.3932Z" fill="white"/>
<path d="M6.77013 8.27649C7.00081 8.43231 7.27248 8.5163 7.55085 8.51787C7.7372 8.52169 7.92241 8.48796 8.09544 8.41867C8.26848 8.34939 8.42579 8.24599 8.55801 8.11461C8.69023 7.98324 8.79465 7.82659 8.86504 7.654C8.93543 7.48142 8.97035 7.29643 8.96772 7.11006C8.96794 6.83168 8.8857 6.55948 8.73137 6.32781C8.57703 6.09614 8.35753 5.91537 8.10056 5.80833C7.84359 5.70129 7.56067 5.67277 7.28751 5.72636C7.01435 5.77996 6.76318 5.91327 6.56571 6.10948C6.36824 6.30568 6.23332 6.55599 6.17797 6.8288C6.12262 7.10162 6.14932 7.38471 6.25471 7.64236C6.3601 7.90002 6.53946 8.12067 6.77013 8.27649Z" fill="white"/>
<path d="M15.372 17.4H17.8249L17.8261 12.5781C17.8261 10.1977 16.3468 9.385 14.9776 9.385C13.7114 9.385 12.8817 10.2045 12.6448 10.684H12.6131V9.60376H10.2531V17.4H12.7072V13.1732C12.7072 12.0465 13.4213 11.4978 14.149 11.4978C14.8381 11.4978 15.372 11.8855 15.372 13.1414V17.4Z" fill="white"/>
</svg>
