<svg width="24" height="24" viewBox="0 0 24 24" fill="none" xmlns="http://www.w3.org/2000/svg">
  <rect width="24" height="24" rx="5" fill="#0A66C2"/>
  <path d="M6.5 9.75H8.75V17H6.5V9.75ZM7.625 9C6.79 9 6.125 8.325 6.125 7.5C6.125 6.675 6.79 6 7.625 6C8.46 6 9.125 6.675 9.125 7.5C9.125 8.325 8.46 9 7.625 9Z" fill="white"/>
  <path d="M10.5 9.75H12.625V10.7H12.66C12.96 10.145 13.73 9.55 14.9 9.55C17.2 9.55 17.625 11.05 17.625 13.05V17H15.375V13.5C15.375 12.63 15.36 11.51 14.16 11.51C12.94 11.51 12.75 12.455 12.75 13.44V17H10.5V9.75Z" fill="white"/>
</svg>
