<svg width="20" height="20" viewBox="0 0 20 20" fill="none" xmlns="http://www.w3.org/2000/svg">
<path fill-rule="evenodd" clip-rule="evenodd" d="M13.9512 3C15.024 3 16.056 3.41222 16.8152 4.15189C17.5752 4.89 18 5.88556 18 6.92778V13.0722C18 15.2422 16.184 17 13.9512 17H6.048C3.8152 17 2 15.2422 2 13.0722V6.92778C2 4.75778 3.8072 3 6.048 3H13.9512ZM15.224 8.08667L15.288 8.02444C15.4792 7.79889 15.4792 7.47222 15.2792 7.24667C15.168 7.13078 15.0152 7.06 14.856 7.04444C14.688 7.03589 14.528 7.09111 14.4072 7.2L10.8 10C10.336 10.3741 9.6712 10.3741 9.2 10L5.6 7.2C5.3512 7.02111 5.0072 7.04444 4.8 7.25444C4.584 7.46444 4.56 7.79889 4.7432 8.03222L4.848 8.13333L8.488 10.8944C8.936 11.2367 9.4792 11.4233 10.048 11.4233C10.6152 11.4233 11.168 11.2367 11.6152 10.8944L15.224 8.08667Z" fill="#F29559"/>
</svg>
