<svg width="24" height="24" viewBox="0 0 24 24" fill="none" xmlns="http://www.w3.org/2000/svg">
<path fill-rule="evenodd" clip-rule="evenodd" d="M16.6098 3.6001C17.8614 3.6001 19.0654 4.09476 19.9511 4.98236C20.8378 5.8681 21.3334 7.06276 21.3334 8.31343V15.6868C21.3334 18.2908 19.2147 20.4001 16.6098 20.4001H7.38941C4.78448 20.4001 2.66675 18.2908 2.66675 15.6868V8.31343C2.66675 5.70943 4.77515 3.6001 7.38941 3.6001H16.6098ZM18.0947 9.7041L18.1694 9.62943C18.3925 9.35876 18.3925 8.96676 18.1591 8.6961C18.0294 8.55703 17.8511 8.4721 17.6654 8.45343C17.4694 8.44316 17.2827 8.50943 17.1418 8.6401L12.9334 12.0001C12.3921 12.449 11.6165 12.449 11.0667 12.0001L6.86675 8.6401C6.57648 8.42543 6.17515 8.45343 5.93341 8.70543C5.68141 8.95743 5.65341 9.35876 5.86715 9.63876L5.98941 9.7601L10.2361 13.0734C10.7587 13.4841 11.3925 13.7081 12.0561 13.7081C12.7178 13.7081 13.3627 13.4841 13.8845 13.0734L18.0947 9.7041Z" fill="#1789FC"/>
</svg>
