<svg width="24" height="24" viewBox="0 0 24 24" fill="none" xmlns="http://www.w3.org/2000/svg">
<path fill-rule="evenodd" clip-rule="evenodd" d="M12 2C17.5228 2 22 6.47715 22 12C22 17.5228 17.5228 22 12 22C6.47715 22 2 17.5228 2 12C2 6.47715 6.47715 2 12 2ZM16.0889 8.02051C15.7127 8.02713 15.1355 8.22772 12.3584 9.38281C11.3857 9.78739 9.44147 10.6245 6.52637 11.8945C6.05313 12.0827 5.8048 12.2672 5.78223 12.4473C5.73929 12.7927 6.23731 12.9 6.86328 13.1035C7.37386 13.2695 8.06092 13.464 8.41797 13.4717C8.74173 13.4786 9.10304 13.3452 9.50195 13.0713C12.2257 11.2327 13.6324 10.3032 13.7207 10.2832C13.7829 10.2691 13.8694 10.2518 13.9277 10.3037C13.9857 10.3558 13.9798 10.4541 13.9736 10.4805C13.9205 10.6944 11.3701 13.0143 11.2188 13.1709C10.6561 13.7553 10.0159 14.1131 11.0029 14.7637C11.8571 15.3266 12.3545 15.6859 13.2344 16.2627C13.7967 16.6313 14.2379 17.0688 14.8184 17.0156C15.0856 16.991 15.3618 16.7396 15.502 15.9902C15.8332 14.2192 16.4843 10.382 16.6348 8.80078C16.6479 8.66225 16.6315 8.48506 16.6182 8.40723C16.6049 8.3295 16.5774 8.21877 16.4766 8.13672C16.3568 8.03958 16.1717 8.01909 16.0889 8.02051Z" fill="#1789FC"/>
</svg>
