<svg xmlns="http://www.w3.org/2000/svg" style="display:none">
  <!-- LinkedIn -->
  <symbol id="icon-linkedin" viewBox="0 0 24 24" fill="none">
    <rect width="24" height="24" rx="5" fill="#0A66C2"/>
    <path d="M6.5 9.75H8.75V17H6.5V9.75ZM7.625 9C6.79 9 6.125 8.325 6.125 7.5C6.125 6.675 6.79 6 7.625 6C8.46 6 9.125 6.675 9.125 7.5C9.125 8.325 8.46 9 7.625 9Z" fill="white"/>
    <path d="M10.5 9.75H12.625V10.7H12.66C12.96 10.145 13.73 9.55 14.9 9.55C17.2 9.55 17.625 11.05 17.625 13.05V17H15.375V13.5C15.375 12.63 15.36 11.51 14.16 11.51C12.94 11.51 12.75 12.455 12.75 13.44V17H10.5V9.75Z" fill="white"/>
  </symbol>

  <!-- Telegram -->
  <symbol id="icon-telegram" viewBox="0 0 24 24" fill="none">
    <circle cx="12" cy="12" r="12" fill="#2AABEE"/>
    <path d="M17.916 6.565L15.564 17.796C15.396 18.564 14.928 18.756 14.268 18.384L10.968 15.936L9.384 17.46C9.204 17.64 9.048 17.796 8.688 17.796L8.928 14.436L15.168 8.832C15.444 8.592 15.108 8.448 14.748 8.688L7 13.488L3.744 12.456C2.988 12.216 2.976 11.7 3.912 11.328L17.004 6.168C17.628 5.94 18.168 6.312 17.916 6.565Z" fill="white"/>
  </symbol>

  <!-- Mail -->
  <symbol id="icon-mail" viewBox="0 0 24 24" fill="none">
    <rect width="24" height="24" rx="6" fill="#3B82F6"/>
    <path fill-rule="evenodd" clip-rule="evenodd" d="M17.14 7H6.86C5.83 7 5 7.83 5 8.86V15.14C5 16.17 5.83 17 6.86 17H17.14C18.17 17 19 16.17 19 15.14V8.86C19 7.83 18.17 7 17.14 7ZM17.14 9.14L12 12.29L6.86 9.14V8.86L12 12L17.14 8.86V9.14Z" fill="white"/>
  </symbol>
</svg>
